<svg version="1.2" baseProfile="tiny-ps" xmlns="http://www.w3.org/2000/svg" viewBox="0 0 123 96" width="123" height="96">
	<title>სტატია – 1</title>
	<style>
		tspan { white-space:pre }
		.shp0 { fill: #000000 } 
	</style>
	<g id="სტატია – 1">
		<g id="Group 1">
			<path id="Path 1" class="shp0" d="M6.62 16.97L25.33 16.97L25.33 0L31.87 0L31.87 43.37L25.33 43.37L25.33 23.12L6.62 23.12L6.62 43.37L0.07 43.37L0.07 0L6.62 0L6.62 16.97Z" />
			<path id="Path 2" fill-rule="evenodd" class="shp0" d="M39.77 37.52C39.77 31.35 41.98 26.09 46.4 21.76C50.83 17.42 56.22 15.26 62.57 15.26C68.95 15.26 74.37 17.44 78.82 21.8C83.21 26.17 85.41 31.53 85.41 37.88C85.41 44.29 83.2 49.66 78.77 54C74.32 58.3 68.86 60.46 62.39 60.46C55.98 60.46 50.61 58.26 46.27 53.87C41.93 49.53 39.77 44.08 39.77 37.52ZM49.87 37.7C49.87 41.98 51.01 45.35 53.3 47.84C55.64 50.37 58.73 51.62 62.56 51.62C66.42 51.62 69.52 50.38 71.83 47.89C74.14 45.4 75.3 42.08 75.3 37.92C75.3 33.76 74.14 30.43 71.83 27.94C69.49 25.43 66.39 24.17 62.56 24.17C58.79 24.17 55.72 25.43 53.38 27.94C51.04 30.46 49.87 33.72 49.87 37.7Z" />
			<path id="Path 3" class="shp0" d="M69.2 0.12L79.47 22.51L90.55 0.2L101.71 22.51L111.85 0.12L122 0.12L101.46 42.28L90.54 17.03L79.51 42.28L59.02 0.12L69.2 0.12Z" />
			<path id="Path 4" class="shp0" d="M31.87 58.04L31.87 95.04L25.32 95.04L25.32 58.04L0 58.04L0 52.14L25.32 52.14L25.32 42.11L31.87 42.11L31.87 52.14L36.55 52.14L36.55 58.04L31.87 58.04Z" />
			<path id="Path 5" fill-rule="evenodd" class="shp0" d="M39.95 65.62C39.95 61.67 41.37 58.31 44.19 55.54C47.02 52.77 50.47 51.38 54.53 51.38C58.61 51.38 62.08 52.78 64.93 55.56C67.73 58.35 69.14 61.78 69.14 65.85C69.14 69.95 67.73 73.39 64.9 76.15C62.06 78.91 58.56 80.28 54.43 80.28C50.33 80.28 46.89 78.88 44.12 76.07C41.34 73.3 39.95 69.82 39.95 65.62ZM46.41 65.73C46.41 68.47 47.14 70.63 48.6 72.22C50.1 73.83 52.07 74.64 54.53 74.64C57 74.64 58.98 73.84 60.46 72.25C61.94 70.66 62.68 68.53 62.68 65.87C62.68 63.21 61.94 61.08 60.46 59.49C58.97 57.89 56.99 57.08 54.53 57.08C52.12 57.08 50.16 57.89 48.66 59.49C47.16 61.11 46.41 63.19 46.41 65.73Z" />
		</g>
	</g>
</svg>